{"title":"Married.In.A.Year.2011.DVDRip.XviD-FiCO","uid":6145138,"size":744295503,"categoryP":"video","categoryS":"movies","magnet":"?xt=urn:btih:3ff11cba84820b02d4d4b2eed17045ba618dceda&amp;dn=Married.In.A.Year.2011.DVDRip.XviD-FiCO&amp;tr=udp%3A%2F%2Ftracker.openbittorrent.com%3A80&amp;tr=udp%3A%2F%2Fopen.demonii.com%3A1337&amp;tr=udp%3A%2F%2Ftracker.coppersurfer.tk%3A6969&amp;tr=udp%3A%2F%2Fexodus.desync.com%3A6969","seeders":0,"leechers":1,"uploader":"SAFCukO09","files":55,"time":1296647672,"description":"CoaX!&lt;CPH&gt;\n\nTeam FiCO &lt;Final Coalition&gt; 2k8 Presents:\n\nMarried.In.A.Year.2011.DVDRip.XviD-FiCO\n &lt;a href=&quot;\nhttp://www.imdb.com/title/tt1756617/&quot; rel=&quot;nofollow&quot; target=&quot;_NEW&quot;&gt;\nhttp://www.imdb.com/title/tt1756617/&lt;/a&gt;\nSubtitles: English Spanish\nDate: 2011.02\nDirector: Neil Steinberg\nGenre: Romance\nPlot: You too can find true love. Just ask the thousands of happy couples\nbrought together by Patti Stanger, CEO of the Millionaire's Club matchmaking\nservice and star of Bravo's hit TV series &quot;Millionaire Matchmaker&quot;. Now Patti\ncan help your marriage dreams come true with Married in a Year - her proven\neasy-to-follow 12-month action plan for finding love. With her expert knowledge\nand up-beat, no-nonsense approach, Patti will motivate and guide you through\nall the stages\n\nCast\nCredited cast:\nSascha Alexander Sascha Alexander\nBeth\nDr. Pat Allen Dr. Pat Allen\nHerself\nMatthew Bennett Matthew Bennett\nHimself\nDavid Boyd David Boyd\nSports Bar Guys\nLouis Geno Brooks Louis Geno Brooks\nSports Bar Guys\nJamie Burke Jamie Burke\nOpening Monologue\nAnthony Cutolo Anthony Cutolo\nBobby The Bragger\nSara A. Emami Sara A. Emami\nOpening Monologue\nAnne-Mari Harris Anne-Mari Harris\nOpening Monologue\nJake Kaufman Jake Kaufman\nJames\nKenny Kelleher Kenny Kelleher\nKenny The Critic\nMichael Legum Michael Legum\nWally the Wounded\nJason Lockhart Jason Lockhart\nPaulie The Pouncer\nMara Marini Mara Marini\nTracy\nKatherine McKalip Katherine McKalip\nOpening Monologue\nFull cast and crew\n\nStats:\nGeneral\nFormat: AVI\nFormat/Info: Audio Video Interleave\nFile size: 699 MiB\nDuration: 1h 12mn\nOverall bit rate: 1 347 Kbps\nWriting application: VirtualDubMod 1.5.10.2 (build 2542/release)\nWriting library: VirtualDubMod build 2542/release\n\nVideo\nID: 0\nFormat: MPEG-4 Visual\nFormat profile: Advanced Simple@L5\nFormat settings, BVOP: Yes\nFormat settings, QPel: No\nFormat settings, GMC: No warppoints\nFormat settings, Matrix: Default (H.263)\nCodec ID: XVID\nCodec ID/Hint: XviD\nDuration: 1h 12mn\nBit rate: 1 211 Kbps\nWidth: 608 pixels\nHeight: 336 pixels\nDisplay aspect ratio: 16:9\nFrame rate: 23.976 fps\nResolution: 8 bits\nColorimetry: 4:2:0\nScan type: Progressive\nBits/(Pixel*Frame): 0.247\nStream size: 628 MiB (90%)\nWriting library: XviD 1.2.1 (UTC 2008-12-04)\n\nAudio\nID: 1\nFormat: MPEG Audio\nFormat version: Version 1\nFormat profile: Layer 3\nMode: Joint stereo\nFormat_Settings_ModeExtension: MS Stereo\nCodec ID: 55\nCodec ID/Hint: MP3\nDuration: 1h 12mn\nBit rate mode: Variable\nBit rate: 124 Kbps\nNominal bit rate: 128 Kbps\nChannel(s): 2 channels\nSampling rate: 48.0 KHz\nStream size: 64.2 MiB (9%)\nAlignment: Aligned on interleaves\nInterleave, duration: 24 ms (0.58 video frame)\nInterleave, preload duration: 148 ms\nWriting library: LAME3.90\nEncoding settings: -m j -V 4 -q 2 -lowpass 17.6 --abr 128\n\nRelease notes:\nenjoy!\n\nGreetz from Team FiCO:\n\nBLooDWeiSeR,CULTXviD,SiCK,DoNE,LAP,TH30R1STS\n\nWinBeta, DvF, WASTE, BERC, KALEVALA, Jiggly\n\nyou know where to find us\n\nNFO By: CoaXCable/CoolPHat &lt;#CPH&gt;","torrent":{"xt":"urn:btih:3ff11cba84820b02d4d4b2eed17045ba618dceda","amp;dn":"Married.In.A.Year.2011.DVDRip.XviD-FiCO","amp;tr":["udp%3A%2F%2Ftracker.openbittorrent.com%3A80","udp%3A%2F%2Fopen.demonii.com%3A1337","udp%3A%2F%2Ftracker.coppersurfer.tk%3A6969","udp%3A%2F%2Fexodus.desync.com%3A6969"],"infoHash":"3ff11cba84820b02d4d4b2eed17045ba618dceda","infoHashBuffer":{"type":"Buffer","data":[63,241,28,186,132,130,11,2,212,212,178,238,209,112,69,186,97,141,206,218]},"announce":[],"urlList":[]}}